<?xml version="1.0" encoding="utf-8"?>
<!-- Generator: Adobe Illustrator 16.0.0, SVG Export Plug-In . SVG Version: 6.00 Build 0)  -->
<!DOCTYPE svg PUBLIC "-//W3C//DTD SVG 1.1//EN" "http://www.w3.org/Graphics/SVG/1.1/DTD/svg11.dtd">
<svg version="1.1"
	 id="Layer_1" xmlns:dc="http://purl.org/dc/elements/1.1/" xmlns:cc="http://creativecommons.org/ns#" xmlns:rdf="http://www.w3.org/1999/02/22-rdf-syntax-ns#" xmlns:svg="http://www.w3.org/2000/svg" xmlns:sodipodi="http://sodipodi.sourceforge.net/DTD/sodipodi-0.dtd" xmlns:inkscape="http://www.inkscape.org/namespaces/inkscape" sodipodi:docname="CBS (Classic).svg" inkscape:version="0.91 r13725"
	 xmlns="http://www.w3.org/2000/svg" xmlns:xlink="http://www.w3.org/1999/xlink" x="0px" y="0px" width="1000px"
	 height="299.391px" viewBox="0 0 1000 299.391" enable-background="new 0 0 1000 299.391" xml:space="preserve">
<sodipodi:namedview  inkscape:cy="187.36933" inkscape:cx="600.84345" inkscape:zoom="0.5" showgrid="false" guidetolerance="10" gridtolerance="10" objecttolerance="10" borderopacity="1" bordercolor="#666666" pagecolor="#ffffff" id="namedview26" inkscape:current-layer="Layer_1" inkscape:window-maximized="1" inkscape:window-y="-8" inkscape:window-x="-8" inkscape:window-height="705" inkscape:window-width="1366" inkscape:pageshadow="2" inkscape:pageopacity="0">
	</sodipodi:namedview>
<path id="path4180" inkscape:connector-curvature="0" fill="#FDB724" d="M850.305,0c-39.701,0-77.776,15.771-105.85,43.845
	s-43.845,66.148-43.845,105.851c0,39.701,15.771,77.776,43.845,105.85s66.148,43.846,105.85,43.846
	c39.702,0,77.777-15.772,105.851-43.846S1000,189.396,1000,149.695c0-39.702-15.771-77.777-43.845-105.851S890.007,0,850.305,0z
	 M850.305,62.872c41.092,0,80.5,16.323,109.556,45.379c12.202,12.203,22.158,26.232,29.604,41.444
	c-7.445,15.212-17.401,29.241-29.604,41.443c-29.056,29.057-68.464,45.38-109.556,45.38c-41.091,0-80.499-16.323-109.555-45.38
	c-12.203-12.202-22.158-26.231-29.604-41.443c7.445-15.212,17.4-29.241,29.604-41.444C769.806,79.195,809.214,62.872,850.305,62.872
	z M850.305,70.356c-21.042,0-41.222,8.359-56.101,23.238s-23.237,35.059-23.237,56.101s8.358,41.222,23.237,56.101
	s35.06,23.237,56.101,23.237c21.042,0,41.222-8.358,56.101-23.237s23.238-35.059,23.238-56.101s-8.359-41.222-23.238-56.101
	S871.347,70.356,850.305,70.356z"/>
<path id="path1534-0" inkscape:connector-curvature="0" fill="#0AAF35" d="M127.63,5.25c54.68,0,77.944,80.404,83.735,105.061
	l0.199,0.745h2.784V4.629l-1.815,2.634c-5.344,7.681-12.9,9.321-23.264,9.321c-7.034,0-14.391-3.008-22.991-6.438
	C154.646,5.449,141.373,0.13,124.249,0.13c-24.805,0-55.923,16.479-79.361,42.004C24.407,64.404,0,103.475,0,162.977
	C0,239.803,62.733,299.38,116.792,299.38c21.673,0,34.548-5.767,45.907-10.961c8.997-4.076,16.752-7.605,27.265-7.605
	c8.973,0,17.324,4.946,22.444,13.372l1.813,3.007V180.4h-2.858l-0.179,0.895c-7.133,45.36-37.034,112.891-89.75,112.891
	c-52.294,0-63.032-51.126-63.032-128.002c0-74.862,7.879-160.934,69.22-160.934"/>
<path id="path1538-9" inkscape:connector-curvature="0" fill="#0099FF" d="M408.2,138.801c27.365-7.456,61.416-22.468,61.416-63.603
	c0-21.674-10.663-39.991-30.919-52.891c-18.542-11.955-44.54-18.492-73.023-18.492H233.895v5.493h46.13v279.739h-46.13v5.418
	h138.267c64.896,0,108.516-33.951,108.516-84.58C480.677,174.617,456.891,151.352,408.2,138.801 M376.063,135.893H337.39V9.308
	h12.203c51.822,0,67.978,8.351,67.978,60.521C417.57,125.653,403.553,135.893,376.063,135.893 M337.39,141.635h32.236
	c28.757,0,56.917,5.468,56.917,70.786c0,65.541-18.02,76.627-58.358,76.627h-30.796L337.39,141.635L337.39,141.635z"/>
<path id="path1542-6" inkscape:connector-curvature="0" fill="#ED1D26" d="M601.739,118.945
	c-35.393-11.781-68.848-22.966-68.848-62.087c0-15.509,4.673-51.598,47.622-51.598c52.865,0,77.969,83.437,77.969,104.017v1.044
	h2.933l0.12-108.466l-1.815,2.386c-7.382,9.817-23.239,9.146-24.109,9.072h-0.079c-4.524,0-11.508-2.237-18.393-4.797
	c-10.042-3.753-22.568-8.401-36.636-8.401c-48.939,0-79.262,48.964-79.262,94.273c0,55.202,41.78,70.215,82.219,84.805
	c34.374,12.303,66.835,23.96,66.835,60.596c0,37.356-28.16,54.034-55.998,54.034c-67.778,0-92.608-103.569-92.608-112.269v-0.398
	h-2.958v113.238l1.79-2.038c8.003-9.52,13.993-10.265,20.978-10.265c9.644,0,17.92,3.256,27.514,6.934
	c12.502,4.872,26.645,10.365,47.92,10.365c39.618,0,87.463-43.148,87.463-96.71c0-56.196-42.004-70.164-82.666-83.735"/>
</svg>
